<svg xmlns="http://www.w3.org/2000/svg" viewBox="-115 -65 400 300"><path fill="currentColor" d="M110.25 30.909c5.9-7.002 8.859-14.566 8.859-22.669 0-1.074-.049-2.158-.17-3.241-4.109.213-8.479 1.458-13.1 3.71-4.63 2.286-8.447 5.151-11.449 8.597-6.014 6.806-9.399 15.13-9.399 22.908 0 1.075.069 2.098.188 3.069 9.339.76 17.951-4.05 25.071-12.374z"/><path fill="currentColor" d="M142.01 116.381c-7.369-6.83-11.119-15.434-11.229-25.77-.12-13.271 5.909-23.616 18.1-31.002-6.81-9.68-17.05-15.053-30.68-16.153-5.03-.427-11.17.657-18.445 3.275-7.692 2.823-12.231 4.239-13.569 4.239-1.792 0-5.876-1.211-12.238-3.599-6.38-2.38-11.514-3.591-15.429-3.591-7.155.119-13.799 1.979-19.948 5.629-6.149 3.65-11.062 8.622-14.755 14.925-4.699 7.847-7.045 17.211-7.045 28.068 0 9.479 1.74 19.268 5.211 29.377 3.241 9.361 7.378 17.57 12.41 24.65 4.69 6.631 8.605 11.311 11.735 14.041 4.904 4.559 9.817 6.729 14.746 6.52 3.241-.109 7.48-1.221 12.742-3.35 5.254-2.121 10.166-3.17 14.745-3.17 4.367 0 9.144 1.049 14.341 3.17 5.18 2.129 9.63 3.18 13.319 3.18 5.141-.121 9.94-2.23 14.42-6.35 2.891-2.511 6.641-7.031 11.221-13.561 3.359-4.79 6.26-10 8.71-15.66 1.01-2.4 1.96-4.9 2.86-7.51-4.152-1.739-7.882-4.188-11.222-7.358z"/></svg>