<svg fill="currentColor" xmlns="http://www.w3.org/2000/svg" viewBox="0 0 53.163 15.78"><path d="M46.383 7.32l.54-2.28c.212-.728-.006-1.04-.42-1.02-.461-.02-.711.074-1.02.84l-2.22 8.58h-2.76l2.34-8.76c.199-.805.699-1.93 3.9-1.92 3.174-.01 2.736 1.74 2.52 2.64l-.48 1.92h-2.4zM10.503 4.68l-1.86 6.54c-.289.999-.132 2.374 2.88 2.4 2.987-.026 3.769-.526 4.2-2.04l1.74-6.12c.204-.897.36-2.741-2.82-2.76-3.195.019-3.914 1.175-4.14 1.98z"/><path d="M11.403 11.22l1.8-6.36c.276-.766.62-.86 1.08-.84.415-.02.696.292.48 1.02l-1.8 6.36c-.171.631-.453.975-1.02.96-.62.015-.651-.61-.54-1.14z" fill="#fff"/><path d="M18.663 4.68l-1.86 6.54c-.292.999-.136 2.374 2.88 2.4 2.984-.026 3.765-.526 4.2-2.04l1.74-6.12c.2-.897.356-2.741-2.82-2.76-3.199.019-3.918 1.175-4.14 1.98z"/><path d="M19.563 11.22l1.8-6.36c.272-.766.616-.86 1.08-.84.411-.02.692.292.48 1.02l-1.8 6.36c-.175.631-.456.975-1.02.96-.624.015-.655-.61-.54-1.14z" fill="#fff"/><path d="M23.763 15.78l2.94-11.1c.245-.805.964-1.961 4.14-1.98 3.199.019 3.042 1.862 2.82 2.76l-1.68 6.12c-.379 1.514-1.785 2.076-3.24 1.98-.607-.06-1.201-.373-1.44-.66l-.78 2.88h-2.76z"/><path d="M27.663 11.58l1.74-6.72c.295-.766.639-.86 1.08-.84.434-.02.715.292.54 1.02l-1.74 6.36c-.179.631-.399.77-1.02.84-.346.01-.753-.146-.6-.66z" fill="#fff"/><path d="M38.943 2.7c-3.214.019-3.933 1.175-4.14 1.98l-1.74 6.42c-.271 1.025-.271 2.494 2.7 2.52 3.029-.026 3.81-.526 4.2-2.04l.48-1.86h-2.76l-.42 1.68c-.19.631-.377.913-.96.9-.605.013-.636-.55-.54-1.08l.6-2.28h4.26l.96-3.48c.209-.929.521-2.741-2.64-2.76zm0 2.34l-.78 2.76h-1.5l.84-2.94c.257-.766.507-.86.96-.84.422-.02.641.292.48 1.02zM5.523 8.16h2.94l-.84 2.88c-.206.741-.456 2.554-4.62 2.58-2.868-.026-3.336-1.058-2.82-2.7l2.46-8.58C3.042.969 3.792 0 7.143 0c3.336 0 3.243 1.688 2.88 2.76l-.72 2.52h-2.94l.84-2.88c.276-.869-.13-1.212-.48-1.2-.337-.013-.775-.075-1.08.84l-2.58 9.12c-.271.746-.053 1.215.42 1.2.465.015.871-.141 1.08-.9l.96-3.3zM51.963"/></svg>