
<svg xmlns="http://www.w3.org/2000/svg"
	 viewBox="0 0 512 512" >
	<path style="fill:#FFB13B;" d="M155.402,0H56.883C25.517,0,0,25.517,0,56.883v102.488h155.402V0z"/>
	<path style="fill:#FFB13B;" d="M348.589,512h106.528C486.483,512,512,486.483,512,455.117V352.559H348.589V512z"/>
	<path style="fill:#FFB13B;" d="M0,352.559v102.558C0,486.483,25.517,512,56.883,512h98.518V352.559H0z"/>
	<path style="fill:#FFB13B;" d="M455.117,0H348.589v159.371H512V56.883C512,25.517,486.483,0,455.117,0z"/>
	<rect x="185.398" style="fill:#FF9500;" width="133.194" height="159.371"/>
	<rect x="348.589" y="189.368" style="fill:#FF9500;" width="163.411" height="133.194"/>
	<rect x="185.398" y="352.559" style="fill:#FF9500;" width="133.194" height="159.441"/>
	<rect y="189.368" style="fill:#FF9500;" width="155.402" height="133.194"/>
<rect x="185.398" y="189.368" style="fill:#FFB13B;" width="133.194" height="133.194"/>

</svg>
