<svg xmlns="http://www.w3.org/2000/svg" viewBox="0 0 400 300"><path fill="currentColor" d="M390.043 112.006c0-4.6-3.7-8.2-8.2-8.2-4.6 0-8.3 3.7-8.3 8.2v17.3c0 4.6 3.7 8.3 8.3 8.3 4.5 0 8.2-3.7 8.2-8.3v-17.3zm-45.4-22.8c0-4.5-3.7-8.2-8.3-8.2-4.6 0-8.2 3.7-8.2 8.2v40.1c0 4.6 3.7 8.3 8.2 8.3 4.7 0 8.3-3.7 8.3-8.3v-40.1zm-45.5-31.1c0-4.6-3.7-8.2-8.2-8.2-4.6 0-8.2 3.7-8.2 8.2v87.7c0 4.6 3.7 8.3 8.2 8.3 4.6 0 8.2-3.7 8.2-8.3v-87.7zm-45.4 31.1c0-4.5-3.7-8.2-8.2-8.2-4.5 0-8.2 3.7-8.2 8.2v40.1c0 4.6 3.7 8.3 8.2 8.3 4.6 0 8.2-3.7 8.2-8.3v-40.1zm-45.5 22.8c0-4.6-3.7-8.2-8.2-8.2-4.6 0-8.3 3.7-8.3 8.2v17.3c0 4.6 3.7 8.3 8.3 8.3 4.5 0 8.2-3.7 8.2-8.3v-17.3zm-45.4-22.8c0-4.5-3.7-8.2-8.3-8.2-4.6 0-8.3 3.7-8.3 8.2v40.1c0 4.6 3.7 8.3 8.3 8.3 4.6 0 8.3-3.7 8.3-8.3v-40.1zm-45.4-31.1c0-4.6-3.7-8.2-8.3-8.2-4.6 0-8.3 3.7-8.3 8.2v87.7c0 4.6 3.7 8.3 8.3 8.3 4.6 0 8.3-3.7 8.3-8.3v-87.7zm-45.5 31.1c0-4.5-3.7-8.2-8.3-8.2s-8.3 3.7-8.3 8.2v40.1c0 4.6 3.7 8.3 8.3 8.3s8.3-3.7 8.3-8.3v-40.1zm-45.4 22.8c0-4.6-3.7-8.2-8.3-8.2-4.6 0-8.3 3.7-8.3 8.2v17.3c0 4.6 3.7 8.3 8.3 8.3 4.6 0 8.3-3.7 8.3-8.3v-17.3zm170.8 71.8c-.5-.1-8.1-2.1-16.2-2.1-15.4 0-24.6 8.3-24.6 20.6 0 10.9 7.7 16.4 17 19.3 1 .3 2.5.8 3.6 1.1 4.1 1.3 7.4 3.2 7.4 6.6 0 3.7-3.8 6.2-12.1 6.2-7.3 0-14.3-2.1-15.7-2.5v15.2c.8.2 9.1 1.8 18 1.8 12.8 0 27.3-5.6 27.3-22.2 0-8-4.9-15.5-15.7-18.9l-4.6-1.5c-2.7-.9-7.6-2.3-7.6-6.3 0-3.2 3.6-5.4 10.3-5.4 5.8 0 12.8 1.9 13 2v-13.9h-.1zm140.8 32.1c0 9.6-7.4 17.4-17.2 17.4-9.9 0-17.2-7.8-17.2-17.4 0-9.6 7.3-17.4 17.2-17.4 9.8.1 17.2 7.9 17.2 17.4m-17.2-34.1c-20.3 0-34.9 15.3-34.9 34.2 0 18.9 14.6 34.2 34.9 34.2 20.3 0 34.9-15.3 34.9-34.2 0-18.9-14.6-34.2-34.9-34.2m-226.4 2.3c-1.6-.5-7.4-2.4-15.2-2.4-20.3 0-35.2 14.5-35.2 34.2 0 21.3 16.4 34.2 35.2 34.2 7.4 0 13.1-1.8 15.2-2.4v-17.7c-.7.4-6.2 3.5-14 3.5-11.1 0-18.3-7.8-18.3-17.6 0-10.1 7.5-17.6 18.3-17.6 8 0 13.3 3.2 14 3.5v-17.7zm173.9 0c-1.6-.5-7.4-2.4-15.2-2.4-20.3 0-35.2 14.5-35.2 34.2 0 21.3 16.5 34.2 35.2 34.2 7.4 0 13.1-1.8 15.2-2.4v-17.7c-.7.4-6.2 3.5-14 3.5-11.1 0-18.2-7.8-18.2-17.6 0-10.1 7.5-17.6 18.2-17.6 8 0 13.3 3.2 14 3.5v-17.7zm-134.3 64.9h-16.7v-66h16.7v66z"/></svg>