<svg xmlns="http://www.w3.org/2000/svg" viewBox="0 0 512 512"><path d="M155.402 0H56.883C25.517 0 0 25.517 0 56.883v102.488h155.402V0zm193.187 512h106.528C486.483 512 512 486.483 512 455.117V352.559H348.589V512zM0 352.559v102.558C0 486.483 25.517 512 56.883 512h98.518V352.559H0zM455.117 0H348.589v159.371H512V56.883C512 25.517 486.483 0 455.117 0z" fill="#ffb13b"/><path fill="#ff9500" d="M185.398 0h133.194v159.371H185.398zm163.191 189.368H512v133.194H348.589zM185.398 352.559h133.194V512H185.398zM0 189.368h155.402v133.194H0z"/><path fill="#ffb13b" d="M185.398 189.368h133.194v133.194H185.398z"/></svg>